<?xml version="1.0" encoding="utf-8"?>
<svg width="25.981895px" height="38.984497px" viewBox="0 0 25.981895 38.984497" version="1.1" xmlns:xlink="http://www.w3.org/1999/xlink" xmlns="http://www.w3.org/2000/svg">
  <path d="M-94.0181 -1289.76C-94.0181 -1289.44 -94.1969 -1289.09 -94.4644 -1288.86L-112.009 -1273.51L-94.4644 -1258.16C-94.1963 -1257.92 -94.0181 -1257.57 -94.0181 -1257.26C-94.0181 -1256.94 -94.1969 -1256.59 -94.4644 -1256.36L-96.6963 -1254.41C-96.9644 -1254.17 -97.3656 -1254.02 -97.7231 -1254.02C-98.0806 -1254.02 -98.4819 -1254.17 -98.75 -1254.41L-119.554 -1272.61C-119.822 -1272.84 -120 -1273.19 -120 -1273.51C-120 -1273.82 -119.821 -1274.17 -119.554 -1274.41L-98.75 -1292.61C-98.4819 -1292.84 -98.0806 -1293 -97.7231 -1293C-97.3656 -1293 -96.9644 -1292.84 -96.6963 -1292.61L-94.4644 -1290.66C-94.1963 -1290.42 -94.0181 -1290.11 -94.0181 -1289.76L-94.0181 -1289.76L-94.0181 -1289.76Z" id="Vector" fill="#666666" fill-rule="evenodd" stroke="none" />
</svg>