<?xml version="1.0" encoding="utf-8"?>
<svg width="40px" height="40px" viewBox="0 0 40 40" version="1.1" xmlns:xlink="http://www.w3.org/1999/xlink" xmlns="http://www.w3.org/2000/svg">
  <defs>
    <path d="M20 0C31.0472 0 40 8.9528 40 20L40 20C40 31.0472 31.0472 40 20 40L20 40C8.95276 40 0 31.0472 0 20L0 20C0 8.9528 8.95276 0 20 0Z" id="path_1" />
    <clipPath id="clip_1">
      <use xlink:href="#path_1" />
    </clipPath>
  </defs>
  <g id="Frame" clip-path="url(#clip_1)">
    <path d="M20 0C31.0472 0 40 8.9528 40 20L40 20C40 31.0472 31.0472 40 20 40L20 40C8.95276 40 0 31.0472 0 20L0 20C0 8.9528 8.95276 0 20 0Z" id="Frame" fill="#F7F7F7" stroke="none" />
    <path d="M21.6675 16.6663L26.6663 16.6663L26.6663 21.6663L21.6663 21.6663L21.6663 33.3326L16.6663 33.3326L16.6663 21.6663L11.6663 21.6663L11.6663 16.6663L16.6663 16.6663L16.6663 14.575C16.6663 12.5938 17.29 10.09 18.53 8.72125C19.77 7.35 21.3188 6.66625 23.1738 6.66625L26.6675 6.66625L26.6675 11.6663L23.1676 11.6663C22.3376 11.6663 21.6675 12.3363 21.6675 13.165L21.6675 16.6663L21.6675 16.6663Z" id="Vector" fill="#134731" fill-rule="evenodd" stroke="none" />
  </g>
</svg>