<?xml version="1.0" encoding="utf-8"?>
<svg width="70px" height="60px" viewBox="0 0 70 60" version="1.1" xmlns:xlink="http://www.w3.org/1999/xlink" xmlns="http://www.w3.org/2000/svg">
  <defs>
    <path d="M70 0L70 0L70 60L0 60L0 0L70 0Z" id="path_1" />
    <clipPath id="clip_1">
      <use xlink:href="#path_1" />
    </clipPath>
  </defs>
  <g id="Frame" clip-path="url(#clip_1)">
    <path d="M70 0L70 0L70 60L0 60L0 0L70 0Z" id="Frame" fill="none" stroke="none" />
    <g id="svgg" transform="translate(1.0738971 0.8038845)">
      <path d="M6.3209 1.64215C4.09088 6.35115 3.58338 15.6652 5.29085 20.5422C5.66115 21.6 6.05455 22.8686 6.16515 23.3616C6.43308 24.5577 9.91365 32.6569 11.3096 35.3335C12.6797 37.96 12.6543 37.9862 10.0265 36.6502C6.2467 34.7287 3.27363 30.7787 1.97653 25.9554C1.05725 22.537 -0.0699248 22.4739 0.00340018 25.8449C0.131325 31.725 5.10133 38.0101 12.5143 41.6669C15.4549 43.1173 14.604 41.9647 21.1728 53.3985C23.9718 58.2708 24.1069 58.4269 25.5233 58.4269C27.2822 58.4269 27.5332 58.0405 28.5214 53.8116C29.5233 49.524 30.6489 45.8036 31.855 42.7926L32.7209 40.6308L31.7794 39.3392C31.2616 38.6288 30.7241 38.0464 30.5854 38.0449C30.1209 38.0401 28.013 42.8057 26.6907 46.8496L25.383 50.8493L23.8288 48.5805C22.3884 46.4772 17.8781 38.1441 16.7646 35.5281C12.7732 26.1514 14.4049 14.81 20.2289 11.4479C22.2828 10.2621 21.9055 8.80471 19.7434 9.57249C15.3206 11.1432 11.3128 17.8459 10.8847 24.3885C10.7878 25.8686 9.6718 23.2572 8.5497 18.9248C7.39838 14.4796 7.2988 5.87319 8.3614 2.6664C9.31498 -0.210847 7.60505 -1.06918 6.3209 1.64215L6.3209 1.64215ZM59.6194 0.505932C59.5001 0.796077 59.5895 2.04787 59.8179 3.28788C61.0305 9.87048 60.6969 15.8218 58.8185 21.1193C57.5107 24.8074 56.9997 25.5924 56.9913 23.9265C56.9638 18.5599 53.2409 12.0468 48.9994 9.94502C45.8483 8.38364 45.5535 9.46444 48.4441 11.9813C56.4815 18.9795 54.7788 33.1049 44.0297 48.6004L42.4418 50.8894L41.8897 48.985C40.4092 43.8783 39.8999 42.5657 37.9758 38.8967L35.9027 34.9435L37.5694 32.9256C38.4861 31.8159 40.3605 30.2282 41.7348 29.3974C43.1091 28.5667 44.1689 27.7056 44.0898 27.484C43.5928 26.0891 39.8639 27.6056 36.3782 30.62L33.9569 32.7139L31.8107 30.7916C29.5081 28.7292 25.7842 26.7405 24.6196 26.9516C23.3778 27.1765 23.5306 27.974 24.9439 28.6445C31.4987 31.7544 36.1677 40.0219 39.4824 54.3884C40.3194 58.0158 40.608 58.4269 42.3186 58.4269C43.7259 58.4269 43.8838 58.2576 46.0863 54.3884C47.444 52.0034 50.9778 46.0522 52.2694 43.9758C52.7617 43.1841 54.0359 42.3017 56.1271 41.3043C62.2577 38.38 67.0639 32.4872 68.0333 26.7069C68.7175 22.6254 67.1383 22.0145 66.0258 25.9304C64.6355 30.8248 61.2455 35.2216 57.4486 37.0556C55.5698 37.9632 55.5467 37.7871 57.1208 34.5437C64.2499 19.8547 65.6615 9.60208 61.6526 1.62973C60.9664 0.265153 59.9493 -0.296991 59.6194 0.505932L59.6194 0.505932Z" id="path0" fill="#FFFFFF" fill-rule="evenodd" stroke="none" />
    </g>
  </g>
</svg>