<?xml version="1.0" encoding="utf-8"?>
<svg width="32px" height="32px" viewBox="0 0 32 32" version="1.1" xmlns:xlink="http://www.w3.org/1999/xlink" xmlns="http://www.w3.org/2000/svg">
  <defs>
    <path d="M32 0L32 0L32 32L0 32L0 0L32 0Z" id="path_1" />
    <clipPath id="clip_1">
      <use xlink:href="#path_1" />
    </clipPath>
  </defs>
  <g id="Frame" clip-path="url(#clip_1)">
    <path d="M32 0L32 0L32 32L0 32L0 0L32 0Z" id="Frame" fill="none" stroke="none" />
    <path d="M20.688 18.688L27.313 25.313L25.313 27.313L18.688 20.688L18.688 19.625L18.313 19.25C16.813 20.563 14.813 21.313 12.688 21.313C7.875 21.313 4 17.5 4 12.688C4 7.876 7.875 4 12.688 4C17.501 4 21.313 7.875 21.313 12.688C21.313 14.813 20.563 16.813 19.25 18.313L19.625 18.688L20.688 18.688L20.688 18.688ZM12.688 18.688C16.001 18.688 18.688 16 18.688 12.688C18.688 9.376 16 6.688 12.688 6.688C9.376 6.688 6.688 9.376 6.688 12.688C6.688 16 9.376 18.688 12.688 18.688L12.688 18.688ZM4 4L27.313 4L27.313 27.313L4 27.313L4 4Z" id="Vector" fill="#FFFFFF" fill-rule="evenodd" stroke="none" />
  </g>
</svg>